<svg height="512pt" viewBox="0 -17 512.001 512" width="512pt" xmlns="http://www.w3.org/2000/svg" fill="#006aff"><path d="m450.316406 48.878906c-5.519531 0-10 4.480469-10 10v76.652344h-309.988281c-5.519531 0-10 4.476562-10 10v287.65625c0 2.652344 1.054687 5.195312 2.929687 7.070312s4.421876 2.929688 7.070313 2.929688h29.414063c5.523437 0 10-4.476562 10-10s-4.476563-10-10-10h-19.414063v-267.65625h299.988281v174.277344c0 5.523437 4.480469 10 10 10 22.984375 0 41.683594 18.703125 41.683594 41.691406s-18.699219 41.683594-41.683594 41.683594h-199.859375c-5.523437 0-10 4.480468-10 10 0 5.523437 4.476563 10 10 10h199.859375c34.011719 0 61.683594-27.667969 61.683594-61.683594v-270.925781c0-34.019531-27.671875-61.695313-61.683594-61.695313zm10 96.652344v-75.4375c18.171875 4.492188 31.683594 20.9375 31.683594 40.480469v225.492187c-8.78125-8.074218-19.90625-13.519531-31.683594-15.449218zm0 0"/><path d="m10 100.925781h386.730469c5.519531 0 10-4.476562 10-10v-80.925781c0-5.523438-4.480469-10-10-10h-386.730469c-5.523438 0-10 4.476562-10 10v80.925781c0 5.523438 4.476562 10 10 10zm10-80.925781h46.570312v16.023438c0 5.523437 4.476563 10 10 10 5.523438 0 10-4.476563 10-10v-16.023438h42.421876v16.023438c0 5.523437 4.476562 10 10 10 5.523437 0 10-4.476563 10-10v-16.023438h42.421874v16.023438c0 5.523437 4.480469 10 10 10 5.523438 0 10-4.476563 10-10v-16.023438h42.425782v16.023438c0 5.523437 4.476562 10 10 10 5.519531 0 10-4.476563 10-10v-16.023438h42.421875v16.023438c0 5.523437 4.476562 10 10 10 5.523437 0 10-4.476563 10-10v-16.023438h50.46875v60.925781h-366.730469zm0 0"/><path d="m240.960938 380.5625h.019531 150.730469c5.523437 0 10-4.476562 10-10v-153.472656c0-5.523438-4.476563-10-10-10h-101.316407c-5.519531 0-10 4.476562-10 10v52.78125h-41.519531c-5.523438 0-10 4.476562-10 10 0 5.523437 4.476562 10 10 10h41.519531v38.601562c0 5.523438 4.480469 10 10 10h53.742188c5.523437 0 10-4.476562 10-10 0-5.519531-4.476563-10-10-10h-43.742188v-91.382812h81.316407v133.472656h-132.550782c-5.699218-21.984375-19.734375-33.320312-31.171875-39.050781-6.3125-3.164063-12.367187-4.929688-17.148437-5.914063v-88.507812h39.847656c5.523438 0 10-4.476563 10-10 0-5.519532-4.476562-10-10-10h-49.847656c-5.523438 0-10 4.480468-10 10v153.472656c0 5.523438 4.476562 10 10 10h50.089844zm-40.117188-44.363281c2.523438.734375 5.320312 1.757812 8.183594 3.191406 9.117187 4.570313 15.523437 11.675781 19.160156 21.171875h-27.34375zm0 0"/><path d="m94.59375 369.550781v-210.929687c0-20.480469-16.660156-37.136719-37.136719-37.136719h-20.320312c-20.476563 0-37.136719 16.660156-37.136719 37.136719v210.929687c0 1.199219.214844 2.425781.640625 3.550781l14.84375 39.523438c.003906.003906.003906.007812.003906.011719l3.867188 10.285156 18.582031 49.464844c1.464844 3.898437 5.195312 6.480469 9.359375 6.480469h.003906c4.167969 0 7.894531-2.582032 9.359375-6.484376l8.660156-23.058593 28.636719-76.222657c.421875-1.125.636719-2.351562.636719-3.550781zm-30.933594 27.328125c-5.332031-1.207031-10.804687-1.820312-16.359375-1.820312-5.546875 0-11.019531.613281-16.363281 1.824218l-6.496094-17.296874h45.714844zm-16.363281 43.550782-7.386719-19.652344-1.847656-4.929688c6.066406-1.050781 12.421875-1.046875 18.46875-.003906l-7.917969 21.082031zm-27.296875-80.84375v-179.011719h17.296875v179.011719zm37.296875 0v-179.011719h17.296875v179.011719zm-37.296875-200.964844c0-9.449219 7.6875-17.136719 17.136719-17.136719h20.320312c9.449219 0 17.136719 7.6875 17.136719 17.136719v1.953125h-54.59375zm0 0"/><path d="m215.160156 429.363281c-1.585937-3.871093-5.597656-6.386719-9.769531-6.160156-4.164063.226563-7.816406 3.097656-9.03125 7.082031-1.199219 3.941406.214844 8.320313 3.480469 10.832032 3.347656 2.582031 8.117187 2.738281 11.628906.386718 3.914062-2.617187 5.503906-7.785156 3.691406-12.140625zm0 0"/></svg>