<svg height="682pt" viewBox="-21 -21 682 682.66534" width="682pt" xmlns="http://www.w3.org/2000/svg" fill="#006aff"><path d="m155.636719 0c-85.636719 0-155.304688 69.667969-155.304688 155.300781 0 85.636719 69.667969 155.308594 155.304688 155.308594s155.304687-69.671875 155.304687-155.308594c0-85.632812-69.667968-155.300781-155.304687-155.300781zm0 285.394531c-71.730469 0-130.089844-58.359375-130.089844-130.09375 0-71.730469 58.359375-130.085937 130.089844-130.085937s130.089843 58.355468 130.089843 130.085937c0 71.734375-58.359374 130.09375-130.089843 130.09375zm0 0"/><path d="m357.722656 222.847656c6.402344-2.730468 9.382813-10.136718 6.648438-16.542968-6.882813-16.132813-10.371094-33.296876-10.371094-51.003907 0-71.730469 58.351562-130.085937 130.085938-130.085937 71.734374 0 130.09375 58.355468 130.09375 130.085937 0 71.734375-58.359376 130.09375-130.09375 130.09375-18.621094 0-36.601563-3.847656-53.425782-11.441406-6.347656-2.859375-13.816406-.039063-16.675781 6.308594-2.867187 6.347656-.039063 13.816406 6.308594 16.675781 20.105469 9.074219 41.570312 13.671875 63.792969 13.671875 85.636718 0 155.304687-69.671875 155.304687-155.308594 0-85.632812-69.667969-155.300781-155.304687-155.300781-85.632813 0-155.300782 69.667969-155.300782 155.300781 0 21.128907 4.167969 41.617188 12.394532 60.898438 2.730468 6.402343 10.136718 9.382812 16.542968 6.648437zm0 0"/><path d="m484.085938 329.394531c-85.632813 0-155.300782 69.667969-155.300782 155.300781 0 85.636719 69.667969 155.304688 155.300782 155.304688 85.636718 0 155.308593-69.667969 155.308593-155.304688 0-85.632812-69.671875-155.300781-155.308593-155.300781zm0 285.390625c-71.734376 0-130.085938-58.355468-130.085938-130.089844 0-71.730468 58.351562-130.089843 130.085938-130.089843 71.734374 0 130.09375 58.359375 130.09375 130.089843 0 71.734376-58.359376 130.089844-130.09375 130.089844zm0 0"/><path d="m200.53125 469.96875c5.800781-8.753906 9.191406-19.238281 9.191406-30.5v-32.242188c0-30.542968-24.847656-55.386718-55.390625-55.386718-30.539062 0-55.386719 24.84375-55.386719 55.386718v32.242188c0 11.222656 3.371094 21.671875 9.132813 30.410156-21.523437 1.839844-40.957031 13.417969-52.804687 31.792969-13.394532 20.792969-20.476563 44.855469-20.476563 69.585937v46.15625c0 6.964844 5.644531 12.609376 12.605469 12.609376h212.796875c6.964843 0 12.609375-5.644532 12.609375-12.609376v-46.15625c0-24.730468-7.085938-48.792968-20.480469-69.585937-11.664063-18.09375-30.671875-29.585937-51.796875-31.703125zm-76.371094-62.742188c0-16.636718 13.535156-30.175781 30.171875-30.175781 16.640625 0 30.175781 13.539063 30.175781 30.175781v32.242188c0 16.054688-12.601562 29.210938-28.4375 30.117188h-3.476562c-15.832031-.90625-28.433594-14.0625-28.433594-30.117188zm123.433594 197.585938h-23.242188v-51.136719c0-6.964843-5.640624-12.609375-12.601562-12.609375-6.964844 0-12.609375 5.644532-12.609375 12.609375v51.136719h-89.613281v-51.136719c0-6.964843-5.644532-12.609375-12.609375-12.609375-6.960938 0-12.605469 5.644532-12.605469 12.609375v51.136719h-24.300781v-33.554688c0-19.878906 5.6875-39.214843 16.457031-55.921874 8.289062-12.863282 22.363281-20.535157 37.664062-20.535157h27.589844v26.886719c0 6.964844 5.644532 12.609375 12.609375 12.609375 6.960938 0 12.605469-5.644531 12.605469-12.609375v-26.886719h26.535156c15.292969 0 29.375 7.671875 37.660156 20.535157 10.765626 16.707031 16.460938 36.042968 16.460938 55.921874zm0 0"/><path d="m221.292969 105.644531h-17.929688v-23.863281c0-15.84375-12.890625-28.738281-28.738281-28.738281h-1.558594c-5.976562 0-11.527344 1.835937-16.132812 4.96875-4.605469-3.132813-10.15625-4.96875-16.132813-4.96875h-1.5625c-15.84375 0-28.738281 12.894531-28.738281 28.738281v23.863281h-20.519531c-6.960938 0-12.605469 5.644531-12.605469 12.605469v43.007812c0 5.597657 3.644531 10.332032 8.691406 11.984376v51.523437c0 6.960937 5.644532 12.605469 12.605469 12.605469h114.300781c6.964844 0 12.609375-5.644532 12.609375-12.605469v-51.660156c4.847657-1.757813 8.320313-6.386719 8.320313-11.847657v-43.007812c0-6.960938-5.644532-12.605469-12.609375-12.605469zm-48.226563-27.386719h1.558594c1.941406 0 3.523438 1.582032 3.523438 3.523438v23.863281h-8.613282v-23.863281c0-1.941406 1.582032-3.523438 3.53125-3.523438zm-37.351562 3.523438c0-1.941406 1.582031-3.523438 3.523437-3.523438h1.558594c1.949219 0 3.53125 1.582032 3.53125 3.523438v23.863281h-8.621094v-23.863281zm-33.125 49.078125h106.101562v17.792969h-106.101562zm97.777344 81.296875h-89.085938v-38.289062h89.085938zm0 0"/><path d="m513.617188 82.058594c-6.425782-2.675782-13.808594.359375-16.488282 6.785156l-55.269531 132.414062c-2.679687 6.425782.351563 13.808594 6.777344 16.492188 1.585937.664062 3.234375.976562 4.855469.976562 4.929687 0 9.617187-2.917968 11.632812-7.753906l55.269531-132.421875c2.679688-6.421875-.355469-13.804687-6.777343-16.492187zm0 0"/><path d="m454.28125 155.527344c0-22.308594-18.148438-40.464844-40.457031-40.464844-22.316407 0-40.464844 18.15625-40.464844 40.464844 0 22.3125 18.148437 40.464844 40.464844 40.464844 22.308593 0 40.457031-18.152344 40.457031-40.464844zm-55.710938 0c0-8.410156 6.84375-15.25 15.253907-15.25 8.40625 0 15.246093 6.839844 15.246093 15.25 0 8.40625-6.839843 15.253906-15.246093 15.253906-8.410157 0-15.253907-6.847656-15.253907-15.253906zm0 0"/><path d="m554.355469 195.992188c22.308593 0 40.464843-18.152344 40.464843-40.464844 0-22.316406-18.152343-40.464844-40.464843-40.464844-22.316407 0-40.464844 18.148438-40.464844 40.464844 0 22.3125 18.148437 40.464844 40.464844 40.464844zm0-55.714844c8.40625 0 15.25 6.839844 15.25 15.25 0 8.40625-6.84375 15.253906-15.25 15.253906-8.410157 0-15.25-6.847656-15.25-15.253906 0-8.410156 6.839843-15.25 15.25-15.25zm0 0"/><path d="m543.589844 509.617188c-13.824219 0-25.683594 8.546874-30.585938 20.628906h-21.707031c-4.90625-12.082032-16.761719-20.628906-30.585937-20.628906-8.714844 0-16.644532 3.402343-22.546876 8.941406v-13.472656h103.691407c5.933593 0 11.058593-4.136719 12.320312-9.929688l12.644531-58.199219c.804688-3.730469-.113281-7.621093-2.503906-10.589843-2.394531-2.96875-6-4.691407-9.816406-4.691407h-116.335938v-19.246093c0-6.960938-5.644531-12.605469-12.609374-12.605469h-10.644532c-6.960937 0-12.601562 5.644531-12.601562 12.605469 0 6.296874 4.609375 11.515624 10.640625 12.457031v18.832031c-.011719.191406-.023438.378906-.023438.5625l.023438 58.203125v50.371094c0 6.960937 5.644531 12.605469 12.605469 12.605469h4.761718c5.015625 11.832031 16.753906 20.152343 30.394532 20.152343 13.644531 0 25.378906-8.320312 30.398437-20.152343h22.078125c5.019531 11.832031 16.753906 20.152343 30.394531 20.152343 18.199219 0 33-14.800781 33-32.996093 0-18.195313-14.800781-33-32.992187-33zm-4.726563-62.734376-7.167969 32.988282h-93.53125v-32.988282zm-78.152343 103.519532c-4.289063 0-7.785157-3.488282-7.785157-7.785156 0-4.292969 3.496094-7.785157 7.785157-7.785157 4.292968 0 7.789062 3.492188 7.789062 7.785157 0 4.296874-3.496094 7.785156-7.789062 7.785156zm82.878906 0c-4.292969 0-7.789063-3.488282-7.789063-7.785156 0-4.292969 3.496094-7.785157 7.789063-7.785157 4.289062 0 7.78125 3.492188 7.78125 7.785157 0 4.296874-3.492188 7.785156-7.78125 7.785156zm0 0"/><path d="m152.027344 562.109375-.644532.148437c-6.777343 1.59375-10.980468 8.378907-9.390624 15.15625 1.367187 5.8125 6.542968 9.726563 12.261718 9.726563.957032 0 1.929688-.105469 2.894532-.335937l.640624-.152344c6.777344-1.589844 10.980469-8.378906 9.390626-15.15625-1.589844-6.777344-8.378907-10.980469-15.152344-9.386719zm0 0"/><path d="m378.96875 242.207031-.640625.152344c-6.777344 1.589844-10.980469 8.378906-9.386719 15.15625 1.359375 5.804687 6.542969 9.726563 12.257813 9.726563.957031 0 1.925781-.113282 2.898437-.34375l.636719-.152344c6.777344-1.589844 10.984375-8.371094 9.390625-15.148438-1.589844-6.777344-8.382812-10.984375-15.15625-9.390625zm0 0"/></svg>