<?xml version="1.0" encoding="iso-8859-1"?>
<!-- Generator: Adobe Illustrator 19.0.0, SVG Export Plug-In . SVG Version: 6.00 Build 0)  -->
<svg xmlns="http://www.w3.org/2000/svg" xmlns:xlink="http://www.w3.org/1999/xlink" version="1.1" id="Layer_1" fill="#006aff" x="0px" y="0px" viewBox="0 0 512 512" style="enable-background:new 0 0 512 512;" xml:space="preserve" width="512" height="512">
<g>
	<g>
		<g>
			<g>
				<g>
					<g>
						<g>
							<g>
								<g>
									<g>
										<g>
											<g>
												<g>
													<g>
														<path d="M207.866,184.572c-1.34,0-2.687-0.269-3.96-0.818l-12.576-5.426c-5.071-2.188-7.408-8.072-5.221-13.143                c2.188-5.071,8.072-7.412,13.143-5.221l7.108,3.066l9.427-7.421c4.34-3.417,10.627-2.668,14.043,1.672                c3.416,4.34,2.667,10.627-1.672,14.043l-14.106,11.105C212.259,183.842,210.073,184.572,207.866,184.572z"/>
													</g>
												</g>
											</g>
										</g>
									</g>
								</g>
							</g>
						</g>
					</g>
				</g>
				<g>
					<g>
						<g>
							<g>
								<g>
									<g>
										<g>
											<g>
												<g>
													<g>
														<path d="M100.59,184.572c-2.208,0-4.393-0.73-6.187-2.143l-14.105-11.105c-4.339-3.416-5.088-9.703-1.672-14.043                c3.416-4.339,9.702-5.089,14.043-1.672l9.427,7.421l7.108-3.066c5.073-2.19,10.956,0.15,13.144,5.221                c2.188,5.07-0.15,10.955-5.221,13.143l-12.577,5.426C103.277,184.303,101.929,184.572,100.59,184.572z"/>
													</g>
												</g>
											</g>
										</g>
									</g>
								</g>
							</g>
						</g>
					</g>
				</g>
			</g>
			<g>
				<g>
					<g>
						<g>
							<g>
								<g>
									<g>
										<g>
											<g>
												<g>
													<path d="M165.734,241.239h-23.012c-5.523,0-10-4.478-10-10c0-5.523,4.477-10,10-10h23.012c5.523,0,10,4.477,10,10               C175.734,236.762,171.257,241.239,165.734,241.239z"/>
												</g>
											</g>
										</g>
									</g>
								</g>
							</g>
						</g>
					</g>
				</g>
			</g>
			<g>
				<g>
					<g>
						<g>
							<g>
								<g>
									<g>
										<g>
											<g>
												<g>
													<g>
														<path d="M208.63,20c-2.63,0-5.21-1.07-7.07-2.931c-1.86-1.859-2.93-4.439-2.93-7.069c0-0.65,0.07-1.311,0.2-1.95                c0.13-0.64,0.32-1.269,0.57-1.88c0.25-0.601,0.56-1.18,0.92-1.72c0.36-0.551,0.78-1.061,1.24-1.521                c2.32-2.32,5.78-3.39,9.03-2.74c0.64,0.13,1.26,0.33,1.87,0.58c0.6,0.25,1.18,0.55,1.72,0.92                c0.55,0.36,1.06,0.78,1.52,1.24c0.46,0.46,0.88,0.97,1.25,1.521c0.36,0.54,0.67,1.119,0.92,1.72                c0.25,0.61,0.441,1.24,0.57,1.88c0.13,0.64,0.19,1.3,0.19,1.95c0,2.63-1.07,5.21-2.93,7.069                c-0.46,0.461-0.97,0.881-1.52,1.24c-0.54,0.37-1.12,0.67-1.72,0.92c-0.61,0.25-1.23,0.45-1.87,0.58                C209.94,19.94,209.29,20,208.63,20z"/>
													</g>
												</g>
											</g>
										</g>
									</g>
								</g>
							</g>
						</g>
					</g>
				</g>
			</g>
			<g>
				<path d="M490.639,305.128h-55.478v-22.05c0-14.627-11.901-26.527-26.529-26.527h-64.133c-14.628,0-26.528,11.9-26.528,26.527      v22.05l-131.092-0.002v-11.238c18.421-4.648,31.665-10.898,39.828-15.56c26.857-15.336,41.085-37.094,41.156-62.928      l0.621-16.682c11.784-2.813,19.566-13.554,19.566-28.024c0-13.644-6.917-23.971-17.584-27.465l0.196-6.995      c2.457-1.822,4.05-4.744,4.05-8.037V61.899c0-0.004,0-0.007,0-0.011c9.733-14.941,15.393-32.766,15.393-51.888      c0-5.523-4.478-10-10-10h-31.272c-5.523,0-10,4.477-10,10s4.477,10,10,10h20.611c-4.906,36.827-36.525,65.329-74.677,65.329      h-45.296c-5.523,0-10,4.478-10,10s4.477,10,10,10h45.296c6.044,0,11.958-0.566,17.692-1.646v0.48      c0,18.767,15.268,34.034,34.036,34.034h4.104l-0.378,13.465c-0.076,2.7,0.944,5.315,2.827,7.252      c1.883,1.937,4.468,3.029,7.169,3.029h1.936c5.131,0,5.897,5.482,5.897,8.751c0,3.269-0.767,8.751-5.897,8.751h-3.331      c-5.378,0-9.793,4.254-9.993,9.628l-0.959,25.763c-0.004,0.124-0.007,0.248-0.007,0.372c0,40.87-50.396,56.085-72.063,60.73      c-0.557,0.12-0.971,0.21-1.227,0.271c-4.51,1.068-7.694,5.096-7.694,9.73v19.188h-25.302V285.94c0-4.635-3.185-8.663-7.695-9.73      c-0.244-0.059-0.632-0.143-1.151-0.256c-21.69-4.69-72.137-20.001-72.137-60.745c0-0.124-0.002-0.248-0.007-0.372l-0.958-25.763      c-0.2-5.374-4.615-9.628-9.993-9.628h-3.966c-5.131,0-5.897-5.482-5.897-8.751c0-3.269,0.766-8.751,5.897-8.751h2.57      c2.704,0,5.292-1.095,7.175-3.034c1.883-1.939,2.901-4.559,2.821-7.262l-0.398-13.45h4.123      c18.768,0,34.037-15.268,34.037-34.034v-8.834c0-5.522-4.477-10-10-10c-5.523,0-10,4.478-10,10v8.834      c0,7.738-6.297,14.034-14.037,14.034h-8.179l0.197-54.205C57.776,31.568,86.977,20,113.14,20h52.594c5.523,0,10-4.477,10-10      s-4.477-10-10-10H113.14C69.193,0,38.144,24.468,34.038,62.335c-0.037,0.346-0.057,0.693-0.058,1.042l-0.235,64.784      c-0.01,2.658,1.04,5.211,2.916,7.095c0.348,0.349,0.719,0.67,1.11,0.961l0.202,6.82c-11.016,3.294-18.2,13.753-18.2,27.657      c0,14.731,8.065,25.597,20.207,28.169l0.616,16.537c0.071,25.763,14.334,47.506,41.259,62.885      c8.166,4.664,21.393,10.919,39.724,15.587v11.254H49.934c-21.269,0-38.572,17.304-38.572,38.572v109.688c0,5.522,4.477,10,10,10      h231.786v14.066c0,19.05,15.499,34.548,34.551,34.548h166.624c19.052,0,34.551-15.498,34.551-34.548v-72.806      c7.224-6.572,11.766-16.043,11.766-26.555v-62.963C500.639,309.605,496.161,305.128,490.639,305.128z M232.46,104.163v-6.602      c8.049-3.478,15.528-8.034,22.253-13.486v34.122h-8.217C238.756,118.197,232.46,111.901,232.46,104.163z M337.971,283.078      c0-3.6,2.929-6.527,6.528-6.527h64.133c3.601,0,6.529,2.928,6.529,6.527v32.05c0,5.522,4.478,10,10,10h55.478v52.963      c0,8.769-7.135,15.902-15.904,15.902h-64.478v-4.405c0-5.522-4.478-10-10-10h-38.491c-5.522,0-10,4.478-10,10v4.405h-64.479      c-8.77,0-15.904-7.134-15.904-15.902v-52.963h66.589c5.522,0,10-4.478,10-10V283.078z M380.256,399.588v26.197h-18.491v-26.197      H380.256z M201.287,325.126l-11.411,17.661l-15.53-17.661H201.287z M133.476,325.126l-15.53,17.661l-11.411-17.661H133.476z       M31.361,443.386v-99.688c0-10.241,8.332-18.572,18.572-18.572h32.791l25.599,39.623c1.701,2.632,4.537,4.315,7.662,4.546      c3.126,0.241,6.178-1.017,8.248-3.369l29.679-33.753l29.679,33.753c1.906,2.167,4.646,3.396,7.509,3.396      c0.245,0,0.492-0.009,0.739-0.027c3.125-0.231,5.961-1.914,7.662-4.546l25.599-39.623h16.283v52.965      c0,10.512,4.542,19.984,11.766,26.556v38.739H31.361z M468.873,477.452c0,8.022-6.527,14.548-14.551,14.548H287.698      c-8.023,0-14.551-6.526-14.551-14.548v-63.696c1.358,0.157,2.739,0.237,4.139,0.237h64.479v21.792c0,5.522,4.478,10,10,10      h38.491c5.522,0,10-4.478,10-10v-21.792h64.478c1.399,0,2.781-0.081,4.139-0.237V477.452z"/>
			</g>
		</g>
	</g>
</g>















</svg>
