<svg xmlns="http://www.w3.org/2000/svg" xmlns:xlink="http://www.w3.org/1999/xlink" version="1.1" style="" xml:space="preserve" width="512" height="512"><rect id="backgroundrect" width="100%" height="100%" x="0" y="0" fill="none" stroke="none"/>
















<g class="currentLayer" style=""><title>Layer 1</title><g id="svg_1" class="selected" fill-opacity="1" fill="#006aff">
	<g id="svg_2" fill="#006aff">
		<g id="svg_3" fill="#006aff">
			<path d="M503.467,494.933 h-34.661 c0.36400000000000005,-2.8040000000000003 0.528,-5.667 0.528,-8.533 c0,-24.086 -13.861,-44.588 -34.133,-54.082 V145.067 c0,-5.12 -3.4130000000000003,-8.533 -8.533,-8.533 h-128 v-128 c0,-5.12 -3.4130000000000003,-8.533 -8.533,-8.533 h-230.4 C54.613,0 51.2,3.4130000000000003 51.2,8.533000000000001 v486.4 H8.533000000000001 c-5.12,0 -8.533,3.4130000000000003 -8.533,8.533 S3.4130000000000003,512 8.533000000000001,512 h51.2 h25.6 h204.8 H458.24 h45.227 c5.12,0 8.533,-3.4130000000000003 8.533,-8.533 S508.587,494.933 503.467,494.933 zM418.133,427.269 c-2.785,-0.38900000000000007 -5.631,-0.6030000000000001 -8.533,-0.6030000000000001 c-6.442,0 -12.761,1.097 -18.731,3.148 c-1.487,-1.982 -3.8840000000000003,-3.148 -6.869,-3.148 c-5.12,0 -8.533,3.4130000000000003 -8.533,8.533 v2.615 c-3.234,2.33 -6.241,4.9879999999999995 -8.97,7.943 c-0.43100000000000005,0.456 -0.8550000000000001,0.918 -1.27,1.3880000000000001 c-7.071,-8.839 -16.179,-15.233 -26.477,-18.346 c-1.479,-1.357 -3.518,-2.134 -5.95,-2.134 c-0.9510000000000001,0 -1.843,0.11900000000000002 -2.6660000000000004,0.3440000000000001 c-1.927,-0.22500000000000003 -3.8840000000000003,-0.3440000000000001 -5.867,-0.3440000000000001 c-5.348,0 -11.37,0.6940000000000002 -16.249,2.6750000000000003 c-0.6040000000000001,0.20400000000000001 -1.204,0.41400000000000003 -1.798,0.6390000000000001 c-5.897,-4.7940000000000005 -12.794,-8.245 -20.062,-10.144 c-0.07700000000000001,-0.021000000000000005 -0.15600000000000003,-0.036000000000000004 -0.232,-0.05700000000000001 c-0.6340000000000001,-0.16300000000000003 -1.27,-0.31800000000000006 -1.909,-0.457 c-0.518,-0.11400000000000002 -1.042,-0.21300000000000002 -1.565,-0.31100000000000005 c-0.22700000000000004,-0.04200000000000001 -0.454,-0.08700000000000002 -0.6820000000000002,-0.126 c-0.549,-0.09500000000000003 -1.1,-0.17900000000000002 -1.6550000000000002,-0.256 c-0.24800000000000003,-0.035 -0.49600000000000005,-0.06600000000000002 -0.7450000000000001,-0.09700000000000003 c-0.509,-0.06300000000000001 -1.02,-0.12200000000000001 -1.534,-0.16900000000000004 c-0.37500000000000006,-0.035 -0.7510000000000001,-0.06100000000000001 -1.127,-0.08800000000000002 c-0.402,-0.028000000000000004 -0.803,-0.06100000000000001 -1.208,-0.08000000000000002 c-0.811,-0.03900000000000001 -1.622,-0.06300000000000001 -2.434,-0.06300000000000001 c-0.6280000000000001,0 -1.251,0.013000000000000003 -1.871,0.036000000000000004 c-0.406,0.014000000000000002 -0.811,0.03900000000000001 -1.216,0.06200000000000001 c-0.16200000000000003,0.010000000000000002 -0.32600000000000007,0.017000000000000005 -0.48800000000000004,0.028000000000000004 c-7.774,0.516 -15.412,2.71 -22.026,6.596 V153.6 h42.667 h128 V427.269 zM68.267,17.067 H281.6 v119.467 h-42.667 c-5.12,0 -8.533,3.4130000000000003 -8.533,8.533 v265.387 c-4.361,-4.361 -9.388,-8.05 -14.861,-10.937 c-0.48300000000000004,-0.258 -0.971,-0.508 -1.461,-0.7520000000000001 c-0.19300000000000003,-0.09500000000000003 -0.38400000000000006,-0.19400000000000003 -0.5780000000000001,-0.28700000000000003 c-6.09,-2.954 -12.717,-4.892 -19.642,-5.617 c-0.09700000000000003,-0.010000000000000002 -0.19500000000000003,-0.018000000000000002 -0.29300000000000004,-0.028000000000000004 c-0.804,-0.08000000000000002 -1.612,-0.14300000000000002 -2.424,-0.19000000000000003 c-0.21500000000000002,-0.013000000000000003 -0.43000000000000005,-0.026000000000000006 -0.6460000000000001,-0.037000000000000005 c-0.917,-0.04300000000000001 -1.8370000000000002,-0.07200000000000001 -2.762,-0.07200000000000001 c-12.7,0 -24.466,4.177 -34.133,11.197 v-2.6630000000000003 c0,-5.12 -3.4130000000000003,-8.533 -8.533,-8.533 c-5.12,0 -8.533,3.4130000000000003 -8.533,8.533 v17.067 c0,1.28 0.21300000000000002,2.453 0.6130000000000001,3.493 c-4.19,6.905 -7.077,14.689 -8.293,22.961 c-9.824,1.123 -18.807,4.658 -26.453,9.943 v-2.263 c0,-5.12 -3.4130000000000003,-8.533 -8.533,-8.533 c-5.12,0 -8.533,3.4130000000000003 -8.533,8.533 v17.067 c0,0.996 0.133,1.925 0.37900000000000006,2.779 c-4.231,6.843 -7.11,14.586 -8.296,22.82 h-9.149000000000001 V17.067 zM132.65,460.977 c0.16900000000000004,-0.015000000000000003 0.3400000000000001,-0.025000000000000005 0.51,-0.038000000000000006 c0.45,-0.035 0.9,-0.06900000000000002 1.354,-0.09000000000000002 c0.6690000000000002,-0.030000000000000006 1.342,-0.05000000000000001 2.02,-0.05000000000000001 c5.12,0 8.533,-3.4130000000000003 8.533,-8.533 c0,-23.893 18.773,-42.667 42.667,-42.667 c21.333,0 39.253,15.36 41.813,36.693 c0.5770000000000001,2.308 1.947,4.21 3.821,5.474 c0.11800000000000002,0.08300000000000002 0.23900000000000002,0.16100000000000003 0.36200000000000004,0.23800000000000002 c0.132,0.08100000000000002 0.263,0.16300000000000003 0.4,0.23700000000000002 c0.31500000000000006,0.17400000000000002 0.6430000000000001,0.3330000000000001 0.985,0.47000000000000003 c0.013000000000000003,0.005000000000000001 0.025000000000000005,0.010000000000000002 0.038000000000000006,0.016000000000000004 c0.39100000000000007,0.15600000000000003 0.799,0.28700000000000003 1.22,0.39200000000000007 c0.0010000000000000002,0 0.0010000000000000002,0 0.0020000000000000005,0.0010000000000000002 c0.508,0.16900000000000004 1.085,0.234 1.6950000000000003,0.21500000000000002 c2.805,0.04100000000000001 5.414,-1.493 6.837,-3.6260000000000003 c0,-0.0010000000000000002 0.0010000000000000002,-0.0010000000000000002 0.0020000000000000005,-0.0020000000000000005 c0,0 0,0 0,0 l0.8530000000000001,-0.8530000000000001 c6.827,-8.533 16.213,-13.653 27.307,-13.653 c5.7620000000000005,0 11.521,1.614 16.69,4.632 c-10.179,9.571 -15.951,22.048 -16.622,35.398 c-0.04500000000000001,0.8730000000000001 -0.06800000000000002,1.7530000000000001 -0.06800000000000002,2.637 c0,5.934 0.987,11.621 2.94,17.067 H94.72 C98.714,476.562 113.924,462.678 132.65,460.977 zM296.154,494.933 c-3.26,-5.514 -5.167,-12.033 -5.167,-17.92 c0,-9.436 3.72,-17.937 10.114,-24.151 c1.222,-1.133 2.525,-2.179 3.901,-3.126 c1.3330000000000002,0.010000000000000002 2.6740000000000004,-0.268 3.9050000000000002,-0.8830000000000001 c18.773,-10.24 40.96,-0.8530000000000001 47.787,17.92 c0.8530000000000001,2.56 3.4130000000000003,5.12 7.68,5.12 c0.81,0 1.706,-0.258 2.606,-0.7160000000000001 c2.141,-0.35100000000000003 3.834,-1.923 5.074,-4.404 c3.307,-7.027 8.427,-12.637 14.659,-16.57 c1.3450000000000002,-0.37500000000000006 2.5,-1.039 3.419,-1.94 c5.861,-2.946 12.505,-4.53 19.469,-4.53 c23.893,0 42.667,18.773 42.667,42.667 c0,2.56 0,5.973 -0.8530000000000001,8.533 H296.154 z" id="svg_4" fill="#006aff"/>
			<path d="M281.6,221.867 c-5.12,0 -8.533,3.4130000000000003 -8.533,8.533 v17.067 c0,5.12 3.4130000000000003,8.533 8.533,8.533 s8.533,-3.4130000000000003 8.533,-8.533 V230.4 C290.133,225.28 286.72,221.867 281.6,221.867 z" id="svg_5" fill="#006aff"/>
			<path d="M281.6,375.467 c-5.12,0 -8.533,3.4130000000000003 -8.533,8.533 v17.067 c0,5.12 3.4130000000000003,8.533 8.533,8.533 s8.533,-3.4130000000000003 8.533,-8.533 V384 C290.133,378.88 286.72,375.467 281.6,375.467 z" id="svg_6" fill="#006aff"/>
			<path d="M281.6,273.067 c-5.12,0 -8.533,3.4130000000000003 -8.533,8.533 v17.067 c0,5.12 3.4130000000000003,8.533 8.533,8.533 s8.533,-3.4130000000000003 8.533,-8.533 V281.6 C290.133,276.48 286.72,273.067 281.6,273.067 z" id="svg_7" fill="#006aff"/>
			<path d="M281.6,324.267 c-5.12,0 -8.533,3.4130000000000003 -8.533,8.533 v17.067 c0,5.12 3.4130000000000003,8.533 8.533,8.533 s8.533,-3.4130000000000003 8.533,-8.533 V332.8 C290.133,327.68 286.72,324.267 281.6,324.267 z" id="svg_8" fill="#006aff"/>
			<path d="M281.6,170.667 c-5.12,0 -8.533,3.4130000000000003 -8.533,8.533 v17.067 c0,5.12 3.4130000000000003,8.533 8.533,8.533 s8.533,-3.4130000000000003 8.533,-8.533 V179.2 C290.133,174.08 286.72,170.667 281.6,170.667 z" id="svg_9" fill="#006aff"/>
			<path d="M332.8,256 c5.12,0 8.533,-3.4130000000000003 8.533,-8.533 V230.4 c0,-5.12 -3.4130000000000003,-8.533 -8.533,-8.533 c-5.12,0 -8.533,3.4130000000000003 -8.533,8.533 v17.067 C324.267,252.587 327.68,256 332.8,256 z" id="svg_10" fill="#006aff"/>
			<path d="M332.8,204.8 c5.12,0 8.533,-3.4130000000000003 8.533,-8.533 V179.2 c0,-5.12 -3.4130000000000003,-8.533 -8.533,-8.533 c-5.12,0 -8.533,3.4130000000000003 -8.533,8.533 v17.067 C324.267,201.387 327.68,204.8 332.8,204.8 z" id="svg_11" fill="#006aff"/>
			<path d="M332.8,307.2 c5.12,0 8.533,-3.4130000000000003 8.533,-8.533 V281.6 c0,-5.12 -3.4130000000000003,-8.533 -8.533,-8.533 c-5.12,0 -8.533,3.4130000000000003 -8.533,8.533 v17.067 C324.267,303.787 327.68,307.2 332.8,307.2 z" id="svg_12" fill="#006aff"/>
			<path d="M332.8,358.4 c5.12,0 8.533,-3.4130000000000003 8.533,-8.533 V332.8 c0,-5.12 -3.4130000000000003,-8.533 -8.533,-8.533 c-5.12,0 -8.533,3.4130000000000003 -8.533,8.533 v17.067 C324.267,354.987 327.68,358.4 332.8,358.4 z" id="svg_13" fill="#006aff"/>
			<path d="M332.8,409.6 c5.12,0 8.533,-3.4130000000000003 8.533,-8.533 V384 c0,-5.12 -3.4130000000000003,-8.533 -8.533,-8.533 c-5.12,0 -8.533,3.4130000000000003 -8.533,8.533 v17.067 C324.267,406.187 327.68,409.6 332.8,409.6 z" id="svg_14" fill="#006aff"/>
			<path d="M384,307.2 c5.12,0 8.533,-3.4130000000000003 8.533,-8.533 V281.6 c0,-5.12 -3.4130000000000003,-8.533 -8.533,-8.533 s-8.533,3.4130000000000003 -8.533,8.533 v17.067 C375.467,303.787 378.88,307.2 384,307.2 z" id="svg_15" fill="#006aff"/>
			<path d="M384,256 c5.12,0 8.533,-3.4130000000000003 8.533,-8.533 V230.4 c0,-5.12 -3.4130000000000003,-8.533 -8.533,-8.533 s-8.533,3.4130000000000003 -8.533,8.533 v17.067 C375.467,252.587 378.88,256 384,256 z" id="svg_16" fill="#006aff"/>
			<path d="M384,409.6 c5.12,0 8.533,-3.4130000000000003 8.533,-8.533 V384 c0,-5.12 -3.4130000000000003,-8.533 -8.533,-8.533 s-8.533,3.4130000000000003 -8.533,8.533 v17.067 C375.467,406.187 378.88,409.6 384,409.6 z" id="svg_17" fill="#006aff"/>
			<path d="M384,358.4 c5.12,0 8.533,-3.4130000000000003 8.533,-8.533 V332.8 c0,-5.12 -3.4130000000000003,-8.533 -8.533,-8.533 s-8.533,3.4130000000000003 -8.533,8.533 v17.067 C375.467,354.987 378.88,358.4 384,358.4 z" id="svg_18" fill="#006aff"/>
			<path d="M384,204.8 c5.12,0 8.533,-3.4130000000000003 8.533,-8.533 V179.2 c0,-5.12 -3.4130000000000003,-8.533 -8.533,-8.533 s-8.533,3.4130000000000003 -8.533,8.533 v17.067 C375.467,201.387 378.88,204.8 384,204.8 z" id="svg_19" fill="#006aff"/>
			<path d="M93.867,324.267 c5.12,0 8.533,-3.4130000000000003 8.533,-8.533 v-17.067 c0,-5.12 -3.4130000000000003,-8.533 -8.533,-8.533 c-5.12,0 -8.533,3.4130000000000003 -8.533,8.533 v17.067 C85.333,320.853 88.747,324.267 93.867,324.267 z" id="svg_20" fill="#006aff"/>
			<path d="M93.867,375.467 c5.12,0 8.533,-3.4130000000000003 8.533,-8.533 v-17.067 c0,-5.12 -3.4130000000000003,-8.533 -8.533,-8.533 c-5.12,0 -8.533,3.4130000000000003 -8.533,8.533 v17.067 C85.333,372.053 88.747,375.467 93.867,375.467 z" id="svg_21" fill="#006aff"/>
			<path d="M93.867,426.667 c5.12,0 8.533,-3.4130000000000003 8.533,-8.533 v-17.067 c0,-5.12 -3.4130000000000003,-8.533 -8.533,-8.533 c-5.12,0 -8.533,3.4130000000000003 -8.533,8.533 v17.067 C85.333,423.253 88.747,426.667 93.867,426.667 z" id="svg_22" fill="#006aff"/>
			<path d="M93.867,68.267 c5.12,0 8.533,-3.4130000000000003 8.533,-8.533 V42.667 c0,-5.12 -3.4130000000000003,-8.533 -8.533,-8.533 c-5.12,0 -8.533,3.4130000000000003 -8.533,8.533 v17.067 C85.333,64.85300000000001 88.747,68.267 93.867,68.267 z" id="svg_23" fill="#006aff"/>
			<path d="M93.867,119.467 c5.12,0 8.533,-3.4130000000000003 8.533,-8.533 V93.867 c0,-5.12 -3.4130000000000003,-8.533 -8.533,-8.533 c-5.12,0 -8.533,3.4130000000000003 -8.533,8.533 v17.067 C85.333,116.053 88.747,119.467 93.867,119.467 z" id="svg_24" fill="#006aff"/>
			<path d="M93.867,170.667 c5.12,0 8.533,-3.4130000000000003 8.533,-8.533 v-17.067 c0,-5.12 -3.4130000000000003,-8.533 -8.533,-8.533 c-5.12,0 -8.533,3.4130000000000003 -8.533,8.533 v17.067 C85.333,167.253 88.747,170.667 93.867,170.667 z" id="svg_25" fill="#006aff"/>
			<path d="M93.867,221.867 c5.12,0 8.533,-3.4130000000000003 8.533,-8.533 v-17.067 c0,-5.12 -3.4130000000000003,-8.533 -8.533,-8.533 c-5.12,0 -8.533,3.4130000000000003 -8.533,8.533 v17.067 C85.333,218.453 88.747,221.867 93.867,221.867 z" id="svg_26" fill="#006aff"/>
			<path d="M93.867,273.067 c5.12,0 8.533,-3.4130000000000003 8.533,-8.533 v-17.067 c0,-5.12 -3.4130000000000003,-8.533 -8.533,-8.533 c-5.12,0 -8.533,3.4130000000000003 -8.533,8.533 v17.067 C85.333,269.653 88.747,273.067 93.867,273.067 z" id="svg_27" fill="#006aff"/>
			<path d="M145.067,119.467 c5.12,0 8.533,-3.4130000000000003 8.533,-8.533 V93.867 c0,-5.12 -3.4130000000000003,-8.533 -8.533,-8.533 c-5.12,0 -8.533,3.4130000000000003 -8.533,8.533 v17.067 C136.533,116.053 139.947,119.467 145.067,119.467 z" id="svg_28" fill="#006aff"/>
			<path d="M145.067,68.267 c5.12,0 8.533,-3.4130000000000003 8.533,-8.533 V42.667 c0,-5.12 -3.4130000000000003,-8.533 -8.533,-8.533 c-5.12,0 -8.533,3.4130000000000003 -8.533,8.533 v17.067 C136.533,64.85300000000001 139.947,68.267 145.067,68.267 z" id="svg_29" fill="#006aff"/>
			<path d="M145.067,221.867 c5.12,0 8.533,-3.4130000000000003 8.533,-8.533 v-17.067 c0,-5.12 -3.4130000000000003,-8.533 -8.533,-8.533 c-5.12,0 -8.533,3.4130000000000003 -8.533,8.533 v17.067 C136.533,218.453 139.947,221.867 145.067,221.867 z" id="svg_30" fill="#006aff"/>
			<path d="M145.067,170.667 c5.12,0 8.533,-3.4130000000000003 8.533,-8.533 v-17.067 c0,-5.12 -3.4130000000000003,-8.533 -8.533,-8.533 c-5.12,0 -8.533,3.4130000000000003 -8.533,8.533 v17.067 C136.533,167.253 139.947,170.667 145.067,170.667 z" id="svg_31" fill="#006aff"/>
			<path d="M145.067,273.067 c5.12,0 8.533,-3.4130000000000003 8.533,-8.533 v-17.067 c0,-5.12 -3.4130000000000003,-8.533 -8.533,-8.533 c-5.12,0 -8.533,3.4130000000000003 -8.533,8.533 v17.067 C136.533,269.653 139.947,273.067 145.067,273.067 z" id="svg_32" fill="#006aff"/>
			<path d="M145.067,324.267 c5.12,0 8.533,-3.4130000000000003 8.533,-8.533 v-17.067 c0,-5.12 -3.4130000000000003,-8.533 -8.533,-8.533 c-5.12,0 -8.533,3.4130000000000003 -8.533,8.533 v17.067 C136.533,320.853 139.947,324.267 145.067,324.267 z" id="svg_33" fill="#006aff"/>
			<path d="M145.067,375.467 c5.12,0 8.533,-3.4130000000000003 8.533,-8.533 v-17.067 c0,-5.12 -3.4130000000000003,-8.533 -8.533,-8.533 c-5.12,0 -8.533,3.4130000000000003 -8.533,8.533 v17.067 C136.533,372.053 139.947,375.467 145.067,375.467 z" id="svg_34" fill="#006aff"/>
			<path d="M196.267,170.667 c5.12,0 8.533,-3.4130000000000003 8.533,-8.533 v-17.067 c0,-5.12 -3.4130000000000003,-8.533 -8.533,-8.533 s-8.533,3.4130000000000003 -8.533,8.533 v17.067 C187.733,167.253 191.147,170.667 196.267,170.667 z" id="svg_35" fill="#006aff"/>
			<path d="M196.267,119.467 c5.12,0 8.533,-3.4130000000000003 8.533,-8.533 V93.867 c0,-5.12 -3.4130000000000003,-8.533 -8.533,-8.533 s-8.533,3.4130000000000003 -8.533,8.533 v17.067 C187.733,116.053 191.147,119.467 196.267,119.467 z" id="svg_36" fill="#006aff"/>
			<path d="M196.267,68.267 c5.12,0 8.533,-3.4130000000000003 8.533,-8.533 V42.667 c0,-5.12 -3.4130000000000003,-8.533 -8.533,-8.533 s-8.533,3.4130000000000003 -8.533,8.533 v17.067 C187.733,64.85300000000001 191.147,68.267 196.267,68.267 z" id="svg_37" fill="#006aff"/>
			<path d="M196.267,375.467 c5.12,0 8.533,-3.4130000000000003 8.533,-8.533 v-17.067 c0,-5.12 -3.4130000000000003,-8.533 -8.533,-8.533 s-8.533,3.4130000000000003 -8.533,8.533 v17.067 C187.733,372.053 191.147,375.467 196.267,375.467 z" id="svg_38" fill="#006aff"/>
			<path d="M196.267,324.267 c5.12,0 8.533,-3.4130000000000003 8.533,-8.533 v-17.067 c0,-5.12 -3.4130000000000003,-8.533 -8.533,-8.533 s-8.533,3.4130000000000003 -8.533,8.533 v17.067 C187.733,320.853 191.147,324.267 196.267,324.267 z" id="svg_39" fill="#006aff"/>
			<path d="M196.267,273.067 c5.12,0 8.533,-3.4130000000000003 8.533,-8.533 v-17.067 c0,-5.12 -3.4130000000000003,-8.533 -8.533,-8.533 s-8.533,3.4130000000000003 -8.533,8.533 v17.067 C187.733,269.653 191.147,273.067 196.267,273.067 z" id="svg_40" fill="#006aff"/>
			<path d="M196.267,221.867 c5.12,0 8.533,-3.4130000000000003 8.533,-8.533 v-17.067 c0,-5.12 -3.4130000000000003,-8.533 -8.533,-8.533 s-8.533,3.4130000000000003 -8.533,8.533 v17.067 C187.733,218.453 191.147,221.867 196.267,221.867 z" id="svg_41" fill="#006aff"/>
			<path d="M247.467,119.467 c5.12,0 8.533,-3.4130000000000003 8.533,-8.533 V93.867 c0,-5.12 -3.4130000000000003,-8.533 -8.533,-8.533 s-8.533,3.4130000000000003 -8.533,8.533 v17.067 C238.933,116.053 242.347,119.467 247.467,119.467 z" id="svg_42" fill="#006aff"/>
			<path d="M247.467,68.267 c5.12,0 8.533,-3.4130000000000003 8.533,-8.533 V42.667 c0,-5.12 -3.4130000000000003,-8.533 -8.533,-8.533 s-8.533,3.4130000000000003 -8.533,8.533 v17.067 C238.933,64.85300000000001 242.347,68.267 247.467,68.267 z" id="svg_43" fill="#006aff"/>
		</g>
	</g>
</g><g id="svg_44">
</g><g id="svg_45">
</g><g id="svg_46">
</g><g id="svg_47">
</g><g id="svg_48">
</g><g id="svg_49">
</g><g id="svg_50">
</g><g id="svg_51">
</g><g id="svg_52">
</g><g id="svg_53">
</g><g id="svg_54">
</g><g id="svg_55">
</g><g id="svg_56">
</g><g id="svg_57">
</g><g id="svg_58">
</g></g></svg>