<svg xmlns="http://www.w3.org/2000/svg" enable-background="new 0 0 64 64" height="64" width="64"><rect id="backgroundrect" width="100%" height="100%" x="0" y="0" fill="none" stroke="none"/><g class="currentLayer" style=""><title>Layer 1</title><circle cx="26" cy="24" r="1" id="svg_1" class="selected" fill-opacity="1" fill="#006aff"/><circle cx="38" cy="24" r="1" id="svg_2" class="selected" fill-opacity="1" fill="#006aff"/><path d="m53.271 49.776c1.078-.933 1.729-2.295 1.729-3.776 0-1.241-.466-2.422-1.298-3.336.198-.541.298-1.098.298-1.664 0-1.631-.807-3.146-2.114-4.072.076-.305.114-.616.114-.928 0-1.609-.958-3.056-2.441-3.685-.334-.141-.559-.532-.559-.973v-12.89c0-9.348-7.106-17.005-16.18-17.433-4.687-.226-9.159 1.44-12.554 4.679-3.396 3.24-5.266 7.609-5.266 12.302v2.556c-1.19.694-2 1.97-2 3.444v2c0 1.474.81 2.75 2 3.444v.556 1.342c0 .441-.225.832-.56.974-1.482.628-2.44 2.075-2.44 3.684 0 .312.038.623.114.928-1.307.926-2.114 2.441-2.114 4.072 0 .566.1 1.123.298 1.664-.832.914-1.298 2.095-1.298 3.336 0 1.481.651 2.843 1.729 3.776-3.576 2.963-5.729 7.396-5.729 12.224v1h54v-1c0-4.828-2.153-9.261-5.729-12.224zm-36.271-31.776c0-4.141 1.65-7.996 4.647-10.855 2.995-2.858 6.923-4.327 11.079-4.128 8.004.377 14.274 7.157 14.274 15.435v12.89c0 1.253.698 2.358 1.778 2.815.743.315 1.222 1.038 1.222 1.843 0 .304-.078.609-.233.909l-.481.933.955.437c1.069.487 1.759 1.555 1.759 2.721 0 .481-.128.96-.379 1.422l-.399.732.649.524c.718.58 1.129 1.426 1.129 2.322 0 1.056-.548 2.014-1.427 2.555-.771-.484-1.585-.913-2.449-1.267l-10.259-4.197c-1.134-.463-1.865-1.553-1.865-2.777v-.718c4.921-3.401 8-9.039 8-15.245v-3.351c0-1.654-1.346-3-3-3h-.169c-2.974 0-5.79-1.438-7.532-3.847-.524-.722-1.383-1.153-2.299-1.153s-1.775.431-2.299 1.153c-1.742 2.409-4.558 3.847-7.532 3.847h-.169c-1.302 0-2.402.839-2.816 2h-2.184zm25.929 33.657-3.052 3.052 1.797 6.291h-5.494l2.628-15.77 3.272 1.339zm-21.01-5.088 3.272-1.339 2.629 15.77h-5.494l1.797-6.291-3.052-3.052zm5.265-11.569c.414 1.161 1.514 2 2.816 2h4c1.654 0 3-1.346 3-3s-1.346-3-3-3h-4c-1.302 0-2.402.839-2.816 2h-3.743c-1.558-2.542-2.441-5.514-2.441-8.649v-3.351c0-.551.448-1 1-1h.169c3.613 0 7.035-1.747 9.153-4.674.295-.408 1.061-.408 1.355 0 2.119 2.927 5.541 4.674 9.154 4.674h.169c.552 0 1 .449 1 1v3.351c0 7.023-4.406 13.247-11 15.591-2.839-1.009-5.268-2.741-7.119-4.942zm1.816-1c0-.552.448-1 1-1h4c.552 0 1 .448 1 1s-.448 1-1 1h-4c-.552 0-1-.448-1-1zm-.036 6.796c.864.45 1.772.837 2.719 1.152l.317.106.316-.105c.947-.316 1.855-.702 2.719-1.152.133 1.387.825 2.632 1.907 3.467l-1.289 7.736h-7.306l-1.29-7.737c1.082-.835 1.774-2.08 1.907-3.467zm-.284 13.204h6.639l-1.167 7h-4.306zm-13.68-30c0-1.103.897-2 2-2h2v2.351c0 1.245.137 2.463.374 3.649h-2.374c-1.103 0-2-.897-2-2zm4.881 6c.332 1.041.757 2.043 1.262 3h-1.143c-1.654 0-3-1.346-3-3zm-8.881 16c0-.896.411-1.742 1.129-2.321l.649-.524-.399-.732c-.251-.463-.379-.942-.379-1.423 0-1.166.69-2.234 1.76-2.722l.955-.437-.481-.933c-.156-.299-.234-.604-.234-.908 0-.805.479-1.528 1.221-1.843.429-.181.794-.467 1.082-.821.916 1.014 2.227 1.664 3.697 1.664h2.364c1.251 1.784 2.818 3.34 4.636 4.596v.718c0 1.224-.731 2.313-1.864 2.776l-10.259 4.197c-.864.354-1.679.783-2.449 1.267-.88-.54-1.428-1.498-1.428-2.554zm4.635 3.14 4.108-1.681-.814 4.884 2.948 2.948-1.632 5.709h-3.245v-6h-2v6h-7.965c.373-5.255 3.665-9.842 8.6-11.86zm33.365 11.86v-6h-2v6h-3.245l-1.632-5.709 2.948-2.948-.814-4.884 4.108 1.681c4.935 2.019 8.227 6.605 8.6 11.86z" id="svg_3" class="" fill-opacity="1" fill="#006aff"/><path d="m42.375 14.333 1.885-.667c-.265-.75-.602-1.479-1-2.168l-1.73 1.002c.336.583.62 1.199.845 1.833z" id="svg_4" class="selected" fill-opacity="1" fill="#006aff"/><path d="m40.25 10.725 1.5-1.323c-2.468-2.798-6.021-4.402-9.75-4.402v2c3.155 0 6.162 1.357 8.25 3.725z" id="svg_5" class="selected" fill-opacity="1" fill="#006aff"/></g></svg>