<svg xmlns="http://www.w3.org/2000/svg" height="639.9975" width="639"><rect id="backgroundrect" width="100%" height="100%" x="0" y="0" fill="none" stroke="none"/><g class="currentLayer" style=""><title>Layer 1</title><path d="m480.414062 279.953125c-27.609374 0-49.992187-22.382813-49.992187-49.992187 0-27.605469 22.382813-49.992188 49.992187-49.992188 27.609376 0 49.988282 22.386719 49.988282 49.992188-.03125 27.597656-22.390625 49.957031-49.988282 49.992187zm0-79.988281c-16.566406 0-29.996093 13.433594-29.996093 29.996094 0 16.566406 13.429687 29.996093 29.996093 29.996093 16.5625 0 29.992188-13.429687 29.992188-29.996093 0-16.5625-13.429688-29.996094-29.992188-29.996094zm0 0" id="svg_1" class="selected" fill-opacity="1" fill="#006aff"/><path d="m120.472656 279.953125c-27.609375 0-49.992187-22.382813-49.992187-49.992187 0-27.605469 22.382812-49.992188 49.992187-49.992188 27.613282 0 49.992188 22.386719 49.992188 49.992188-.035156 27.597656-22.394532 49.957031-49.992188 49.992187zm0-79.988281c-16.566406 0-29.996094 13.433594-29.996094 29.996094 0 16.566406 13.429688 29.996093 29.996094 29.996093 16.5625 0 29.996094-13.429687 29.996094-29.996093 0-16.5625-13.433594-29.996094-29.996094-29.996094zm0 0" id="svg_2" class="selected" fill-opacity="1" fill="#006aff"/><path d="m580.394531 319.945312v149.976563c-.03125 27.597656-22.394531 49.957031-49.992187 49.992187h-109.980469v19.996094h19.996094v39.992188h19.796875l.199218 20.09375 20-.195313-.191406-19.898437h20.1875v-39.992188h29.992188c38.636718-.050781 69.941406-31.355468 69.988281-69.988281v-149.976563zm-99.980469 239.960938h-20v-19.996094h20zm0 0" id="svg_3" class="selected" fill-opacity="1" fill="#006aff"/><path d="m520.40625 509.914062c27.597656-.035156 49.957031-22.394531 49.992188-49.992187v-109.980469c-.050782-38.632812-31.351563-69.9375-69.988282-69.988281h-75.058594l-55.582031 59.988281h-59.328125v29.996094c0 16.566406 13.429688 29.996094 29.992188 29.996094h58.863281l41.121094-37.382813v77.375h-49.992188c-27.589843.035157-49.957031 22.394531-49.992187 49.992188v109.980469h20v-109.980469c0-16.5625 13.429687-29.996094 29.992187-29.996094h69.988281v-142.585937l-68.855468 62.601562h-51.125c-5.519532 0-9.996094-4.476562-9.996094-10v-9.996094h48.0625l55.582031-59.992187h66.328125c27.597656.035156 49.957032 22.394531 49.992188 49.992187v109.980469c0 16.566406-13.433594 29.996094-29.996094 29.996094h-99.984375c-16.5625 0-29.996094 13.429687-29.996094 29.996093v79.984376h20v-79.984376c0-5.523437 4.476563-10 9.996094-10zm0 0" id="svg_4" class="selected" fill-opacity="1" fill="#006aff"/><path d="m175.535156 279.953125h-75.058594c-38.632812.050781-69.941406 31.355469-69.988281 69.988281v109.980469c.03125 27.597656 22.398438 49.957031 49.992188 49.992187h99.980469c5.523437 0 10 4.476563 10 10v79.984376h19.996093v-79.984376c0-16.566406-13.429687-29.996093-29.996093-29.996093h-99.980469c-16.566407 0-29.996094-13.429688-29.996094-29.996094v-109.980469c.035156-27.597656 22.398437-49.957031 49.992187-49.992187h66.332032l55.582031 59.992187h48.054687v9.996094c0 5.523438-4.476562 10-9.996093 10h-51.121094l-68.859375-62.601562v142.585937h69.988281c16.566407 0 29.996094 13.433594 29.996094 29.996094v109.980469h19.996094v-109.980469c-.035157-27.597657-22.394531-49.957031-49.992188-49.992188h-49.992187v-77.375l41.125 37.382813h58.859375c16.5625 0 29.996093-13.429688 29.996093-29.996094v-29.996094h-59.332031zm0 0" id="svg_5" class="selected" fill-opacity="1" fill="#006aff"/><path d="m70.480469 519.914062c-27.59375-.035156-49.957031-22.394531-49.992188-49.992187v-149.976563h-19.996093v149.976563c.046874 38.632813 31.355468 69.9375 69.988281 69.988281h29.996093v39.992188h20.1875l-.191406 19.898437 19.996094.195313.199219-20.09375h19.796875v-39.992188h19.996094v-19.996094zm69.988281 39.992188h-19.996094v-19.996094h19.996094zm0 0" id="svg_6" class="selected" fill-opacity="1" fill="#006aff"/><path d="m196.203125 262.425781 11.375-62.460937h-17.117187c-16.566407 0-29.996094-13.429688-29.996094-29.992188v-139.976562c0-16.566406 13.429687-29.996094 29.996094-29.996094h219.964843c16.5625 0 29.992188 13.429688 29.992188 29.996094v139.976562c0 16.5625-13.429688 29.992188-29.992188 29.992188h-126.777343zm-5.742187-242.429687c-5.523438 0-10 4.476562-10 10v139.976562c0 5.519532 4.476562 9.996094 10 9.996094h41.070312l-6.8125 37.523438 52.527344-37.523438h133.179687c5.519531 0 9.996094-4.476562 9.996094-9.996094v-139.976562c0-5.523438-4.476563-10-9.996094-10zm0 0" id="svg_7" class="selected" fill-opacity="1" fill="#006aff"/></g></svg>